<?xml version="1.0" encoding="utf-8"?>
<!-- Generator: Adobe Illustrator 16.0.0, SVG Export Plug-In . SVG Version: 6.00 Build 0)  -->
<!DOCTYPE svg PUBLIC "-//W3C//DTD SVG 1.1//EN" "http://www.w3.org/Graphics/SVG/1.1/DTD/svg11.dtd">
<svg version="1.1" id="Layer_1" xmlns="http://www.w3.org/2000/svg" xmlns:xlink="http://www.w3.org/1999/xlink" x="0px" y="0px"
	 width="1072.754px" height="201.423px" viewBox="0 0 1072.754 201.423" enable-background="new 0 0 1072.754 201.423"
	 xml:space="preserve">
<g>
	<path d="M898.543,3.927h167.758l6.453,45.446h-53.303l20.76,148.122h-60.875l-20.76-148.122h-53.582L898.543,3.927z"/>
	<path d="M806.247,197.495H745.37l24.969-176.736c0.561-4.673,2.713-8.648,6.451-11.923c3.744-3.27,8.043-4.909,12.904-4.909h54.984
		c10.477,0,17.582,4.865,21.322,14.588l74.621,178.98H877.5l-15.148-40.958h-52.74L806.247,197.495z M845.801,112.213l-15.711-42.36
		c-2.428-6.356-4.299-13.369-5.609-21.04h-7.855c0.377,9.538,0.281,16.74-0.281,21.601l-3.365,41.799H845.801z"/>
	<path d="M708.901,3.927l20.76,149.524c1.873,13.093-1.166,23.894-9.117,32.401c-7.947,8.513-18.936,12.765-32.963,12.765
		c-43.201,0-74.153-1.214-92.856-3.646l-1.122-45.728h63.962c4.303,0,7.152-0.793,8.555-2.384c1.404-1.587,1.92-4.532,1.543-8.837
		L647.745,3.927H708.901z"/>
	<path d="M448.847,3.927l15.991,112.494c2.621,16.271,5.799,26.979,9.537,32.121c3.744,5.146,10.758,7.715,21.041,7.715
		c10.099,0,16.318-2.569,18.654-7.715c2.342-5.142,2.293-15.101-0.14-29.876L497.66,3.927h60.595l16.271,112.494
		c3.928,30.114-0.512,51.807-13.324,65.084c-12.809,13.281-34.27,19.918-64.383,19.918c-30.67,0-52.644-6.031-65.925-18.095
		c-13.277-12.063-22.066-33.616-26.371-64.663L387.972,3.927H448.847z"/>
	<path d="M294.555,136.9c-1.307,1.499-1.684,3.366-1.122,5.611c0.749,2.994,2.805,5.098,6.172,6.312
		c3.366,1.218,9.257,1.823,17.673,1.823s30.675-0.464,66.768-1.403l5.61,42.36c-25.433,6.545-50.588,9.819-75.464,9.819
		c-28.237,0-48.155-3.972-59.753-11.923c-11.594-7.947-18.607-22.956-21.04-45.026c-1.684-14.96-0.044-26.931,4.909-35.908
		c4.957-8.977,15.104-17.112,30.438-24.406l32.542-15.429c5.427-2.617,8.934-4.813,10.521-6.593c1.591-1.775,2.2-3.787,1.823-6.031
		c-0.745-2.989-2.477-5.05-5.19-6.172c-2.708-1.122-7.337-1.683-13.886-1.683c-22.443,0-45.069,0.188-67.89,0.561l-5.33-38.713
		C241.35,3.366,264.445,0,290.627,0c27.309,0,47.366,3.927,60.175,11.782c12.812,7.855,20.435,22.162,22.863,42.921
		c1.499,13.093-0.232,24.407-5.19,33.945c-4.953,9.538-15.101,18.05-30.438,25.528l-35.348,17.393
		C298.578,133.63,295.865,135.405,294.555,136.9z"/>
	<path d="M0,7.013c17.582-4.3,36.286-6.452,56.107-6.452c14.965,0,27.168,1.122,36.609,3.366
		c9.446,2.244,18.283,6.829,26.511,13.746c8.231,6.921,14.824,17.021,19.777,30.297c4.957,13.282,9.025,30.675,12.203,52.179
		c2.433,19.454,3.366,35.628,2.805,48.532c-0.561,12.905-3.738,23.241-9.538,30.999c-5.794,7.763-13.369,13.233-22.723,16.412
		c-9.35,3.178-21.693,4.769-37.03,4.769c-26.743,0-46.191-5.33-58.352-15.99c-12.154-10.66-20.102-28.707-23.845-54.143
		c-3.178-21.504-0.842-37.074,7.014-46.708c7.854-9.63,22.911-14.448,45.165-14.448c12.344,0,23.846,3.367,34.506,10.1
		c-3.178-15.149-7.105-25.06-11.782-29.737c-4.673-4.672-12.997-7.013-24.968-7.013H3.928L0,7.013z M65.785,152.329
		c2.714,4.116,8.184,6.172,16.411,6.172c4.116,0,7.202-0.28,9.258-0.842c2.061-0.561,3.787-1.495,5.19-2.805
		c1.402-1.306,2.151-3.739,2.244-7.294c0.096-3.55-0.093-7.526-0.562-11.922c-0.465-4.392-1.354-10.801-2.665-19.217
		c-8.228-4.672-16.271-7.013-24.126-7.013c-6.355,0-10.331,0.982-11.923,2.946c-1.586,1.963-1.823,7.062-0.701,15.289
		C60.784,139.986,63.076,148.218,65.785,152.329z"/>
</g>
</svg>
